<svg width="342" height="108" viewBox="0 0 342 108" fill="none" xmlns="http://www.w3.org/2000/svg">
<path fill-rule="evenodd" clip-rule="evenodd" d="M46.5 0H0V88.1443H32.1849C32.5692 87.4948 33.0496 86.7526 34.1064 86.0103C34.6828 82.4845 34.875 78.866 34.6828 74.9691L33.9143 64.5773C27.9576 59.1959 24.4029 53.4433 23.5382 46.4845C23.25 44.1649 22.4814 42.1237 21.3285 40.3608C19.9835 40.4536 18.6384 40.6392 17.1973 40.4536L15.564 41.4742C14.219 42.2165 13.3543 41.8454 12.5857 41.2887C11.0486 39.9897 11.625 38.4124 13.2583 37.299C14.5072 36.4639 15.564 35.4433 16.3326 33.9588C17.2934 32.2887 19.1188 30.9897 20.656 29.5979C22.0971 27.5567 22.7696 24.6804 23.0579 22.3608C23.1539 21.8041 23.7304 22.0825 23.7304 22.0825L23.5382 25.0515C24.8833 24.2165 26.3244 22.8247 27.4773 21.6186C28.1498 20.7835 28.3419 19.8557 28.3419 19.0206L29.0145 18.7423L28.9184 21.3402C30.7438 21.2474 31.8967 20.3196 32.6653 18.5567L33.2417 18.8351C33.2417 20.2268 32.1849 21.1546 30.3595 22.1753C30.2634 22.732 30.4556 23.4742 30.4556 24.0309C32.5692 24.0309 34.2986 23.1959 35.0672 21.3402L35.4514 21.5258L35.3554 22.268C35.6436 22.268 35.8357 22.0825 36.124 21.7113L37.0847 19.9485L37.5651 20.134C37.1808 21.433 36.5083 22.732 34.5868 23.7526C33.4339 24.4949 31.9928 25.0515 30.2634 25.5155C28.1498 26.0722 26.8048 27.6495 25.3636 29.8763C25.0754 30.7113 25.4597 30.9897 26.3244 30.6186C27.4773 28.6701 28.9184 27.8351 30.7438 28.0206C30.7438 30.0619 29.2066 31.4536 27.4773 32.9381L33.8182 44.6289C35.3554 46.3918 37.1808 47.2268 39.4866 46.7629L46.6922 46.299L65.7149 44.9072C67.8285 44.9072 69.6539 45.6495 71.4793 46.5773C72.9205 47.3196 73.8812 48.6185 74.7459 49.9175C75.7066 51.5876 75.9948 53.4433 76.187 55.4845L75.0341 56.2268C74.1694 57.9897 73.4969 59.8454 73.3047 61.9794C73.3047 63.6495 73.7851 65.3196 75.2262 66.9897C76.2831 68.6598 77.6281 69.866 79.0692 70.701C79.6457 72.3711 79.6457 73.9484 78.8771 75.6186L79.3574 87.2165L78.0124 87.7732V88.1443H93V0H46.5ZM35.1632 88.1443L36.124 86.8454L36.7004 86.7526L36.7965 83.134C37.5651 79.5155 38.0455 76.1752 38.2376 72.3711L38.814 72.2783L39.4866 74.7835C39.3905 76.268 40.2552 78.4021 41.2159 79.5155L42.3688 88.1443H35.1632ZM45.4432 88.1443L45.155 87.3093L43.6178 79.0515V78.5876C44.0981 77.1959 43.906 75.5258 42.9452 74.0412L42.8492 73.1134L43.0413 64.299C49.094 64.3917 55.531 63.7423 61.1033 62.2577C61.1994 64.5773 62.6405 66.3402 64.562 67.8247C67.2521 70.8866 68.3089 74.6907 67.4442 79.3299C66.9638 82.3917 65.907 85.268 63.9855 87.6804L63.6973 88.1443H45.4432ZM65.811 88.1443V88.0515L67.156 87.7732L68.0207 84.7113C69.0775 80.9072 70.1343 77.567 71.3833 75.1546C72.1519 73.4845 72.0558 73.1134 71.095 71.7216L70.4225 69.2165C73.0165 70.7938 75.1302 72.9278 76.8595 75.433L76.7634 84.9897C75.8988 85.9175 75.2262 87.0309 74.7459 88.1443H65.811ZM29.7831 22.5464C29.7831 22.0825 29.7831 22.1753 29.687 22.0825C29.5909 21.9897 29.3988 22.1753 29.3027 22.1753C26.7087 24.4949 23.8264 26.8144 22.4814 29.5979C22.5775 29.9691 22.7696 29.9691 23.1539 29.6907C24.595 27.1856 26.5165 25.2371 29.1105 23.9381C29.3027 23.4742 29.4948 23.0103 29.7831 22.5464Z" fill="#0293DE"/>
<path fill-rule="evenodd" clip-rule="evenodd" d="M0 88.8866H31.8006C30.8399 90.2783 29.5909 91.2062 28.7262 92.6907L31.4163 92.9691L32.5692 92.0412H34.2986C34.5868 91.0206 34.3946 89.9072 34.5868 88.8866H34.6828H42.4649L42.561 89.1649C41.8884 89.9072 41.6002 90.835 41.7924 92.2268L39.3905 95.2887L42.8492 95.1959C43.8099 95.2887 44.4824 95.0103 44.6746 94.4536L44.8667 91.4845C46.3078 90.4639 46.0196 89.5361 45.7314 88.8866H63.1209L61.3915 91.0206L64.8502 91.2062L65.5227 88.8866H74.4576C74.2655 89.7216 74.0733 90.5567 74.0733 91.3917H77.7242L77.9163 88.8866H93V89.1649C92.6157 97.5155 87.1395 99.7423 75.9948 99L61.3915 99.0928C54.0899 100.392 48.1333 103.639 46.5 108C44.8667 103.639 38.9101 100.392 31.6085 99.0928L17.0052 99C5.86054 99.7423 0.384298 97.5155 0 89.1649V88.8866Z" fill="#009846"/>
<path fill-rule="evenodd" clip-rule="evenodd" d="M17.3895 38.5979V38.6907C18.4463 38.6907 19.311 38.5979 20.3678 38.5051C22.0971 38.2268 22.0971 37.7629 23.3461 35.9072L23.5383 35.2577L24.2108 35.1649C24.3069 35.1649 24.4029 35.1649 24.499 35.0722C24.499 34.8866 24.5951 34.7938 24.5951 34.701V34.4227L24.499 34.0515C23.6343 33.0309 23.8265 32.9381 24.1147 32.4742L24.5951 32.1959C24.3069 32.1031 24.1147 32.2887 23.9226 32.2887C22.3854 33.3093 25.2676 34.4227 23.0579 34.5155C22.2893 38.0412 19.7914 38.134 17.3895 38.5979ZM76.2831 72.5567C76.7635 73.1134 77.2438 73.7629 77.7242 74.3196C77.6281 73.5773 77.2438 72.835 76.7635 72.1856C76.4752 71.8144 75.9949 71.4433 75.6106 70.9794C75.2263 70.5154 74.842 69.9587 74.3616 69.402C73.7852 68.567 73.3048 67.7319 72.8244 66.8969C72.5362 66.433 72.344 65.9691 72.1519 65.5051C71.9597 65.134 71.7676 64.6701 71.5755 64.2062C71.4794 63.7423 71.3833 63.2783 71.2872 62.8144L71.0951 61.8866C70.999 61.4227 70.999 61.0515 70.999 60.5876V59.6598L71.0951 58.8247C71.1912 58.268 71.3833 57.8041 71.4794 57.2474L71.7676 55.9484C71.9597 55.3917 72.0558 54.7423 72.1519 54.0928V52.9794V52.5154V51.9587V51.4948L72.0558 51.0309L71.9597 50.567L71.7676 50.1959L71.5755 49.8247L71.3833 49.4536L71.1912 49.0825L70.9029 48.8041L70.6147 48.433L70.3265 48.1546L69.9422 47.8763L69.4618 47.6907L69.0775 47.4124L68.5011 47.2268L68.0207 47.0412L67.3482 46.8557L66.6757 46.7629L66.0031 46.6701L65.2345 46.5773L64.4659 46.4845L63.6013 46.3917H63.1209C66.4835 47.8763 71.7676 47.0412 70.3265 55.4845C68.8854 64.9484 71.1912 66.6185 76.2831 72.5567ZM41.0238 56.9691C41.312 56.0412 41.7924 55.7629 42.2728 55.9484C42.561 56.0412 42.6571 56.0412 42.8492 56.5979C42.8492 57.2474 42.8492 58.0825 42.9453 58.4536C42.9453 58.8247 43.1374 58.7319 43.3296 58.6392C43.4257 58.5464 43.4257 58.268 43.4257 57.1546C44.3864 57.3402 44.7707 57.3402 45.2511 57.8969C45.5393 58.268 45.7314 58.7319 46.1157 59.1031C46.2118 59.1959 46.2118 59.2886 46.3079 59.3814C46.5961 59.6598 46.7883 59.7526 47.0765 59.8453C47.5569 59.9381 48.3254 59.9381 48.7097 59.567C48.998 59.2886 49.2862 58.9175 49.3823 58.5464C50.4391 59.1959 51.1116 58.8247 52.4566 58.7319C52.6488 58.9175 52.8409 59.1031 53.1292 59.1959C53.5135 59.3814 54.0899 59.1959 54.4742 59.1031C55.8193 58.6392 57.4525 57.9897 58.7976 57.5258C58.7976 57.3402 58.8936 55.1134 58.8936 55.1134C59.0858 55.299 59.2779 55.0206 59.4701 55.2062C59.5662 55.1134 59.8544 55.2062 60.0465 55.2062C60.1426 55.4845 60.4308 55.8557 60.5269 56.2268C59.9505 54.3711 59.8544 52.4227 59.9505 50.6598C59.5662 49.9175 59.4701 50.1031 58.9897 50.3814C58.9897 50.8453 58.7976 51.402 58.7976 51.866C58.029 56.2268 56.9721 57.8041 54.4742 53.3505C53.3213 52.701 52.5527 52.9794 52.7449 54.4639C52.7449 55.5773 51.6881 55.6701 51.1116 54.9278C50.0548 53.6288 48.998 52.3299 47.9412 51.0309C46.5961 54.7423 44.5785 53.2577 43.0414 50.6598C42.4649 50.1959 41.8885 50.2886 41.312 50.8453C41.0238 51.6804 41.2159 53.5361 41.6002 54.6495C41.0238 55.4845 40.3513 55.4845 40.4473 57.6185C40.8316 60.4948 40.9277 62.2577 40.2552 64.8557C39.3905 68.3814 40.3513 72.2783 40.6395 73.6701C40.6395 74.134 40.6395 74.5979 40.6395 74.9691L40.8316 74.5979L41.5042 73.2062C41.4081 73.0206 41.2159 72.835 41.1199 72.6495C41.0238 72.4639 40.9277 72.2783 40.8316 72C40.7356 71.7216 40.6395 71.5361 40.6395 71.2577C40.5434 70.9794 40.5434 70.701 40.5434 70.4227C40.4473 69.7732 40.5434 69.2165 40.5434 68.6598L40.6395 68.0103C41.0238 66.5258 41.5042 65.134 41.6963 63.5567C41.6963 62.7216 41.6963 61.9794 41.6002 61.2371C41.312 59.567 41.0238 58.0825 41.0238 56.9691ZM31.8007 50.8453C29.0145 51.6804 26.6126 48.433 25.5558 47.5979C25.6519 47.9691 25.5558 48.433 26.6126 49.5464C28.9184 52.3299 29.9752 53.1649 29.3988 55.8557C30.3595 55.7629 30.4556 55.5773 31.4164 55.4845C29.7831 53.6288 31.6085 51.4948 31.8007 50.8453ZM36.8926 50.4742C36.9887 49.9175 37.373 49.3608 37.9494 48.8969C39.1984 48.3402 42.4649 47.7835 42.6571 47.7835C42.4649 47.6907 40.7356 47.9691 38.0455 48.1546C37.8533 48.1546 37.5651 48.1546 37.373 48.1546C36.8926 48.0618 36.4122 48.1546 36.0279 48.0618C35.9319 47.9691 35.4515 47.5979 35.4515 47.5979C35.4515 47.7835 35.4515 47.8763 35.3554 48.0618L35.2593 48.8969L34.3947 48.9897L34.0104 48.7113C33.7221 48.6185 33.53 48.433 33.3378 48.2474C33.2418 48.1546 33.0496 47.9691 32.9535 47.7835C32.7614 47.5979 32.6653 47.4124 32.5693 47.134V46.9484L32.4732 46.7629V46.5773C32.3771 46.2062 32.5693 45.6495 32.5693 45.2783C30.6478 42.0309 29.1106 38.7835 27.4773 35.7216C27.093 35.5361 26.9009 35.1649 26.6126 34.8866L26.5166 35.1649C26.4205 35.5361 26.5166 35.2577 26.2283 35.5361C27.8616 36.1856 28.5341 39.3402 29.8792 41.9381C30.4556 43.8866 30.3595 46.3917 31.4164 46.7629L33.8182 49.3608C34.2025 50.3814 34.6829 50.567 34.9711 50.8453L35.0672 49.6392C35.2593 49.1752 35.5476 49.1752 35.7397 49.4536L36.8926 50.4742ZM34.4907 53.6288C33.53 53.5361 34.2025 56.134 33.8182 57.433C34.2025 57.8041 34.6829 57.9897 35.1633 57.8041C34.9711 56.5979 34.6829 54.9278 34.4907 53.6288Z" fill="#D9DADA"/>
<path fill-rule="evenodd" clip-rule="evenodd" d="M32.281 24.4949C33.53 24.0309 34.3946 23.567 35.0671 23.0103L34.6828 22.9175C34.2025 23.2887 33.3378 23.7526 32.1849 24.1237L29.687 24.5876C29.687 24.5876 29.8791 23.9382 29.5909 24.0309C29.4948 24.0309 29.1105 24.6804 29.0145 24.6804C27.6694 25.2371 24.9793 27 23.8264 29.8763C23.0578 30.3402 22.001 30.5258 21.905 29.7835L21.3285 29.6907L21.1364 29.9691L19.8874 31.0825C18.9266 31.8248 18.062 32.6598 17.1973 33.866C17.0052 34.1443 16.813 34.5155 16.6209 34.7938L15.8523 35.9072C15.2758 36.6495 14.5072 37.299 13.6426 37.7629C12.874 38.3196 12.0093 39.0619 12.4897 40.1753L12.6818 40.3608C12.6818 40.4536 12.7779 40.5464 12.7779 40.5464L13.2583 40.732C13.6426 40.8248 14.6994 40.4536 15.3719 39.5258C15.6601 39.2474 15.7562 39.2474 16.4287 39.1547L16.7169 39.2474C18.3502 39.6186 20.9442 39.3402 22.3853 38.6907C23.6343 37.9485 23.7304 36.8351 24.0186 35.9072C25.7479 35.8144 25.5558 33.3093 24.4029 33.1237C24.1147 33.0309 24.499 32.9382 24.595 32.8454C24.7872 32.8454 26.1322 32.6598 26.1322 32.7526L26.7087 32.8454C27.6694 32.0103 28.7262 31.0825 29.3988 30.0619L29.5909 29.7835C29.7831 29.4124 29.9752 29.0413 30.0713 28.6701C29.4948 28.6701 29.0145 28.8557 28.5341 29.134C28.1498 29.3196 27.8616 29.598 27.6694 29.8763C27.3812 30.1547 27.189 30.433 26.9969 30.8041L26.8047 31.1753C26.5165 31.6392 26.0362 31.6392 25.5558 31.6392H25.0754L24.6911 31.4536L24.4029 31.0825L23.9225 30.9897L24.595 30.0619L25.0754 29.3196C25.4597 28.6701 25.5558 28.3918 26.0362 27.7423C26.4205 27.2784 26.8047 26.9072 27.189 26.4433C27.5733 26.165 27.8616 25.9794 28.2459 25.701C28.438 25.6083 28.6302 25.5155 28.8223 25.4227C29.2066 25.2371 29.687 25.1443 30.0713 24.9588L32.281 24.4949ZM17.3895 38.598V38.6907C18.4463 38.6907 19.3109 38.598 20.3678 38.5052C22.0971 38.2268 22.0971 37.7629 23.3461 35.9072L23.5382 35.2577L24.2107 35.165C24.3068 35.165 24.4029 35.165 24.499 35.0722C24.499 34.8866 24.595 34.7938 24.595 34.701V34.4227L24.499 34.0516C23.6343 33.0309 23.8264 32.9382 24.1147 32.4742L24.595 32.1959C24.3068 32.1031 24.1147 32.2887 23.9225 32.2887C22.3853 33.3093 25.2676 34.4227 23.0578 34.5155C22.2893 38.0413 19.7913 38.134 17.3895 38.598ZM76.2831 72.5567C76.7634 73.1134 77.2438 73.7629 77.7242 74.3196C77.6281 73.5773 77.2438 72.8351 76.7634 72.1856C76.4752 71.8144 75.9948 71.4433 75.6105 70.9794C75.2262 70.5155 74.8419 69.9588 74.3616 69.4021C73.7851 68.567 73.3047 67.732 72.8244 66.8969C72.5361 66.433 72.344 65.9691 72.1519 65.5052C71.9597 65.134 71.7676 64.6701 71.5754 64.2062C71.4793 63.7423 71.3833 63.2784 71.2872 62.8144L71.095 61.8866C70.999 61.4227 70.999 61.0515 70.999 60.5876V59.6598L71.095 58.8247C71.1911 58.268 71.3833 57.8041 71.4793 57.2474L71.7676 55.9485C71.9597 55.3918 72.0558 54.7423 72.1519 54.0928V52.9794V52.5155V51.9588V51.4948L72.0558 51.0309L71.9597 50.567L71.7676 50.1959L71.5754 49.8247L71.3833 49.4536L71.1911 49.0825L70.9029 48.8041L70.6147 48.433L70.3264 48.1546L69.9421 47.8763L69.4618 47.6907L69.0775 47.4124L68.501 47.2268L68.0207 47.0412L67.3481 46.8557L66.6756 46.7629L66.0031 46.6701L65.2345 46.5773L64.4659 46.4845L63.6012 46.3918H63.1209C66.4835 47.8763 71.7676 47.0412 70.3264 55.4845C68.8853 64.9485 71.1911 66.6186 76.2831 72.5567ZM41.0238 56.9691C41.312 56.0412 41.7923 55.7629 42.2727 55.9485C42.5609 56.0412 42.657 56.0412 42.8492 56.5979C42.8492 57.2474 42.8492 58.0825 42.9452 58.4536C42.9452 58.8247 43.1374 58.732 43.3295 58.6392C43.4256 58.5464 43.4256 58.268 43.4256 57.1546C44.3864 57.3402 44.7707 57.3402 45.251 57.8969C45.5392 58.268 45.7314 58.732 46.1157 59.1031C46.2118 59.1959 46.2118 59.2887 46.3078 59.3814C46.5961 59.6598 46.7882 59.7526 47.0764 59.8454C47.5568 59.9381 48.3254 59.9381 48.7097 59.567C48.9979 59.2887 49.2861 58.9175 49.3822 58.5464C50.439 59.1959 51.1116 58.8247 52.4566 58.732C52.6488 58.9175 52.8409 59.1031 53.1291 59.1959C53.5134 59.3814 54.0899 59.1959 54.4742 59.1031C55.8192 58.6392 57.4525 57.9897 58.7975 57.5258C58.7975 57.3402 58.8936 55.1134 58.8936 55.1134C59.0857 55.299 59.2779 55.0206 59.47 55.2062C59.5661 55.1134 59.8543 55.2062 60.0465 55.2062C60.1426 55.4845 60.4308 55.8557 60.5268 56.2268C59.9504 54.3711 59.8543 52.4227 59.9504 50.6598C59.5661 49.9175 59.47 50.1031 58.9897 50.3814C58.9897 50.8454 58.7975 51.4021 58.7975 51.866C58.0289 56.2268 56.9721 57.8041 54.4742 53.3505C53.3213 52.701 52.5527 52.9794 52.7448 54.4639C52.7448 55.5773 51.688 55.6701 51.1116 54.9278C50.0547 53.6289 48.9979 52.3299 47.9411 51.0309C46.5961 54.7423 44.5785 53.2577 43.0413 50.6598C42.4649 50.1959 41.8884 50.2887 41.312 50.8454C41.0238 51.6804 41.2159 53.5361 41.6002 54.6495C41.0238 55.4845 40.3512 55.4845 40.4473 57.6186C40.8316 60.4948 40.9277 62.2577 40.2552 64.8557C39.3905 68.3814 40.3512 72.2784 40.6395 73.6701C40.6395 74.134 40.6395 74.5979 40.6395 74.9691L40.8316 74.5979L41.5041 73.2062C41.4081 73.0206 41.2159 72.8351 41.1198 72.6495C41.0238 72.4639 40.9277 72.2784 40.8316 72C40.7355 71.7217 40.6395 71.5361 40.6395 71.2577C40.5434 70.9794 40.5434 70.701 40.5434 70.4227C40.4473 69.7732 40.5434 69.2165 40.5434 68.6598L40.6395 68.0103C41.0238 66.5258 41.5041 65.134 41.6963 63.5567C41.6963 62.7217 41.6963 61.9794 41.6002 61.2371C41.312 59.567 41.0238 58.0825 41.0238 56.9691ZM31.8006 50.8454C29.0145 51.6804 26.6126 48.433 25.5558 47.5979C25.6519 47.9691 25.5558 48.433 26.6126 49.5464C28.9184 52.3299 29.9752 53.165 29.3988 55.8557C30.3595 55.7629 30.4556 55.5773 31.4163 55.4845C29.7831 53.6289 31.6085 51.4948 31.8006 50.8454ZM36.8926 50.4742C36.9886 49.9175 37.3729 49.3608 37.9494 48.8969C39.1983 48.3402 42.4649 47.7835 42.657 47.7835C42.4649 47.6907 40.7355 47.9691 38.0454 48.1546C37.8533 48.1546 37.5651 48.1546 37.3729 48.1546C36.8926 48.0619 36.4122 48.1546 36.0279 48.0619C35.9318 47.9691 35.4514 47.5979 35.4514 47.5979C35.4514 47.7835 35.4514 47.8763 35.3554 48.0619L35.2593 48.8969L34.3946 48.9897L34.0103 48.7113C33.7221 48.6186 33.53 48.433 33.3378 48.2474C33.2417 48.1546 33.0496 47.9691 32.9535 47.7835C32.7614 47.5979 32.6653 47.4124 32.5692 47.134V46.9485L32.4731 46.7629V46.5773C32.3771 46.2062 32.5692 45.6495 32.5692 45.2784C30.6477 42.0309 29.1105 38.7835 27.4773 35.7217C27.093 35.5361 26.9008 35.165 26.6126 34.8866L26.5165 35.165C26.4205 35.5361 26.5165 35.2577 26.2283 35.5361C27.8616 36.1856 28.5341 39.3402 29.8791 41.9382C30.4556 43.8866 30.3595 46.3918 31.4163 46.7629L33.8182 49.3608C34.2025 50.3814 34.6828 50.567 34.9711 50.8454L35.0671 49.6392C35.2593 49.1753 35.5475 49.1753 35.7397 49.4536L36.8926 50.4742ZM34.4907 53.6289C33.53 53.5361 34.2025 56.134 33.8182 57.433C34.2025 57.8041 34.6828 57.9897 35.1632 57.8041C34.9711 56.5979 34.6828 54.9278 34.4907 53.6289ZM22.001 29.134C22.2893 28.9485 22.9618 27 23.4421 26.6289L28.438 22.3608L28.2459 21.9897L28.1498 21.5258C27.9576 21.8041 27.7655 22.3608 27.5733 22.5464C26.5165 23.3815 25.5558 24.2165 24.499 25.2371L23.3461 25.8866H22.9618L21.5207 28.9485L22.001 29.134ZM13.3543 41.0103C14.5072 41.1031 14.9876 40.4536 14.9876 40.2681C14.6033 40.5464 14.0269 40.8248 13.3543 41.0103ZM22.2893 40.732C22.7696 41.4742 23.0578 42.2165 23.3461 42.9588C23.6343 43.7938 23.9225 44.6289 24.0186 45.4639C24.2107 46.2062 24.3068 46.9485 24.4029 47.6907C24.499 48.2474 24.6911 48.8969 24.7872 49.5464C24.9793 50.1031 25.1715 50.6598 25.3636 51.3093C25.5558 51.866 25.7479 52.4227 26.0362 53.0722C26.2283 53.6289 26.5165 54.1856 26.8047 54.7423C27.093 55.299 27.3812 55.8557 27.7655 56.3196C28.0537 56.8763 28.438 57.433 28.8223 57.9897C29.1105 58.4536 29.4948 58.9175 29.8791 59.3814C30.2634 59.2887 30.7438 59.1959 30.9359 58.732C30.7438 57.6186 30.2634 57.2474 29.7831 56.4124C30.1674 56.3196 31.1281 55.9485 31.5124 55.9485C31.6085 56.7835 31.5124 57.8969 32.281 58.732C32.7614 59.1959 33.7221 59.2887 33.8182 58.6392C33.8182 58.1753 33.8182 57.8969 33.8182 57.7113C34.2985 58.1753 34.6828 58.268 35.2593 58.0825C34.4907 58.9175 35.3554 62.0722 37.6612 64.299C38.3337 68.6598 38.718 70.3299 39.9669 73.7629C39.9669 75.9897 40.2552 77.567 41.4081 78.1237C41.4081 78.1237 41.6002 78.1237 41.6002 78.2165C42.1766 78.3093 42.1766 78.1237 42.1766 78.0309C41.0238 76.9175 40.8316 75.8969 41.5041 74.9691L42.1766 73.1134L41.9845 72.7423C40.5434 70.9794 41.2159 67.5464 42.3688 63.6495C42.3688 60.9588 42.0806 59.0103 41.5041 57.8969C41.312 57.0619 41.6963 56.7835 42.3688 56.7835L42.5609 58.8247C42.8492 59.2887 43.2335 59.2887 43.7138 58.732V57.8041C44.1942 57.7113 44.5785 57.8969 44.7707 58.3608C45.4432 59.4742 46.1157 60.4948 47.3647 60.4948C48.4215 60.5876 49.3822 60.4021 49.6704 59.1031C50.0547 59.3814 51.0155 59.2887 52.1684 59.1959C52.6488 59.567 53.3213 59.9381 54.7624 59.4742L59.0857 58.0825L59.1818 55.5773H59.8543C59.5661 53.9072 61.1994 64.3918 69.4618 67.8247C70.1343 68.2887 70.9029 68.7526 71.5754 69.1237C72.344 69.6804 73.1126 70.3299 73.7851 70.9794C74.2655 71.3505 74.6498 71.7217 75.0341 72.1856C75.8988 73.0206 76.5713 73.9485 77.2438 74.8763L77.532 75.2474L78.2045 75.5258L78.4928 74.9691C78.4928 73.5773 77.7242 72.1856 76.8595 71.2577C73.2087 67.5464 70.7107 62.2577 71.9597 58.1753C74.0733 50.567 73.0165 45.7423 62.6405 45.7423L46.6921 46.8557L39.5826 47.4124C39.1023 47.5052 38.718 47.5979 38.2376 47.5979C37.9494 47.5052 37.6612 47.5052 37.2769 47.5052C36.8926 47.4124 36.5083 47.3196 36.124 47.134C34.5868 46.4845 34.4907 48.0619 34.875 48.433C33.8182 48.1546 33.0496 46.9485 33.2417 46.4845C32.9535 46.299 33.4339 45.1856 33.2417 45L27.9576 35.2577C27.093 34.7938 27.093 33.866 26.1322 34.0516C25.844 35.2577 25.6519 35.6289 25.2676 35.7217C24.3068 36.2784 23.6343 37.4845 24.0186 39.1547C23.25 39.433 22.7696 39.9897 22.2893 40.732ZM41.9845 79.3299C41.9845 79.4227 41.9845 79.4227 41.9845 79.4227L42.9452 86.1031L43.0413 86.2887L44.0981 86.1031V85.3608L43.0413 79.3299H41.9845ZM43.3295 88.5155L43.2335 89.3505C43.0413 89.5361 42.9452 89.7216 42.8492 89.9072C42.657 90.1856 42.5609 90.4639 42.4649 90.8351C42.3688 91.0206 42.3688 91.2062 42.3688 91.4845C42.3688 91.5773 42.657 91.3918 42.657 91.4845L43.5217 91.5773C43.5217 91.2062 43.5217 91.1134 44.0021 91.0206L44.7707 90.7423L44.9628 90.5567L45.155 90.3711L45.251 90.1856V89.9072C45.251 89.7216 45.251 89.6289 45.251 89.4433L45.155 89.1649C44.9628 88.8866 44.8667 88.6082 44.7707 88.3299V88.2371L43.3295 88.5155ZM42.3688 92.4124L40.7355 94.6392L43.0413 94.5464C43.3295 94.5464 43.8099 94.5464 44.0021 94.268L43.5217 92.8763C43.4256 92.7835 43.4256 92.6907 43.3295 92.4124H42.3688ZM76.8595 86.3814L76.2831 86.9381C75.7066 87.5876 75.9948 87.2165 75.6105 87.9588L77.3399 88.5155V87.4021L77.4359 86.4742L76.8595 86.3814ZM75.1302 89.0722C74.938 89.6289 74.8419 90.0928 74.7459 90.7423H77.1477V89.8144L75.1302 89.0722ZM66.0992 85.732C65.907 85.9175 65.8109 86.1031 65.7149 86.3814C65.6188 86.567 65.2345 86.9381 65.0423 87.2165L65.907 87.3093L66.5795 87.2165C66.7717 86.8454 66.8678 86.4742 66.9638 86.1031L66.0992 85.732ZM63.7934 88.8866L62.6405 90.4639L64.3698 90.5567L64.7541 89.1649L63.7934 88.8866ZM35.3554 68.4742C35.3554 69.5876 34.7789 70.6082 35.5475 71.7217L36.3161 72.6495C36.22 73.3918 35.7397 73.8557 35.7397 74.6907C35.6436 75.6186 35.9318 76.6392 36.22 77.3814L36.4122 77.0103C36.22 75.9897 36.3161 75.0619 36.7965 74.3196C37.469 73.9485 37.469 73.1134 37.469 72.2784C35.4514 71.9072 35.7397 69.5876 35.6436 68.6598C35.5475 68.1031 35.7397 68.567 35.3554 68.4742ZM35.9318 79.1443L34.9711 84.1546L35.0671 84.6186C35.5475 83.7835 35.9318 82.9485 36.124 82.2062L36.22 81C36.22 80.3505 36.22 79.7938 36.22 79.1443H35.9318ZM33.7221 87.6804C33.626 87.7732 33.4339 87.5876 33.3378 87.6804C33.1457 87.9588 33.3378 87.5876 33.1457 87.9588C32.8574 88.3299 32.6653 88.701 32.4731 89.0722C32.1849 89.4433 31.8967 89.9072 31.5124 90.2784C31.032 90.9278 30.3595 91.4845 29.8791 92.134L31.2242 92.3196L32.1849 91.3918H33.7221C33.7221 90.7423 33.53 90.0928 33.8182 89.4433C33.9143 89.1649 33.626 89.0722 33.626 88.7938L33.9143 87.6804H33.7221ZM20.5599 33.5876L19.5992 33.7732C19.0227 33.6804 18.5424 34.0516 18.4463 34.701L17.8698 35.5361L17.9659 35.6289L18.7345 35.3505C19.7913 35.5361 20.2717 34.7938 20.1756 34.4227L20.656 33.7732L20.5599 33.5876ZM42.657 75.0619C42.0806 74.8763 41.7923 75.0619 41.7923 75.7113C42.4649 76.1753 42.657 76.9175 42.4649 77.8454C42.657 78.2165 42.9452 78.1237 43.2335 77.9381C43.6178 76.9175 43.6178 75.9897 42.657 75.0619Z" fill="white" stroke="white" stroke-width="0.333333"/>
<path d="M123.5 63.25C122.167 63.25 120.925 63.0333 119.775 62.6C118.642 62.15 117.65 61.525 116.8 60.725C115.967 59.9083 115.317 58.95 114.85 57.85C114.383 56.75 114.15 55.55 114.15 54.25C114.15 52.95 114.383 51.75 114.85 50.65C115.317 49.55 115.975 48.6 116.825 47.8C117.675 46.9833 118.667 46.3583 119.8 45.925C120.933 45.475 122.175 45.25 123.525 45.25C124.958 45.25 126.267 45.5 127.45 46C128.633 46.4833 129.633 47.2083 130.45 48.175L128.35 50.15C127.717 49.4667 127.008 48.9583 126.225 48.625C125.442 48.275 124.592 48.1 123.675 48.1C122.758 48.1 121.917 48.25 121.15 48.55C120.4 48.85 119.742 49.275 119.175 49.825C118.625 50.375 118.192 51.025 117.875 51.775C117.575 52.525 117.425 53.35 117.425 54.25C117.425 55.15 117.575 55.975 117.875 56.725C118.192 57.475 118.625 58.125 119.175 58.675C119.742 59.225 120.4 59.65 121.15 59.95C121.917 60.25 122.758 60.4 123.675 60.4C124.592 60.4 125.442 60.2333 126.225 59.9C127.008 59.55 127.717 59.025 128.35 58.325L130.45 60.325C129.633 61.275 128.633 62 127.45 62.5C126.267 63 124.95 63.25 123.5 63.25ZM141.096 63V60.3L140.921 59.725V55C140.921 54.0833 140.646 53.375 140.096 52.875C139.546 52.3583 138.712 52.1 137.596 52.1C136.846 52.1 136.104 52.2167 135.371 52.45C134.654 52.6833 134.046 53.0083 133.546 53.425L132.321 51.15C133.037 50.6 133.887 50.1917 134.871 49.925C135.871 49.6417 136.904 49.5 137.971 49.5C139.904 49.5 141.396 49.9667 142.446 50.9C143.512 51.8167 144.046 53.2417 144.046 55.175V63H141.096ZM136.896 63.175C135.896 63.175 135.021 63.0083 134.271 62.675C133.521 62.325 132.937 61.85 132.521 61.25C132.121 60.6333 131.921 59.9417 131.921 59.175C131.921 58.425 132.096 57.75 132.446 57.15C132.812 56.55 133.404 56.075 134.221 55.725C135.037 55.375 136.121 55.2 137.471 55.2H141.346V57.275H137.696C136.629 57.275 135.912 57.45 135.546 57.8C135.179 58.1333 134.996 58.55 134.996 59.05C134.996 59.6167 135.221 60.0667 135.671 60.4C136.121 60.7333 136.746 60.9 137.546 60.9C138.312 60.9 138.996 60.725 139.596 60.375C140.212 60.025 140.654 59.5083 140.921 58.825L141.446 60.7C141.146 61.4833 140.604 62.0917 139.821 62.525C139.054 62.9583 138.079 63.175 136.896 63.175ZM147.913 63V49.65H151.188L156.563 59.125H155.263L160.913 49.65H163.838L163.863 63H161.038V53L161.538 53.325L156.538 61.6H155.188L150.163 53.1L150.763 52.95V63H147.913ZM176.154 63V60.3L175.979 59.725V55C175.979 54.0833 175.704 53.375 175.154 52.875C174.604 52.3583 173.771 52.1 172.654 52.1C171.904 52.1 171.162 52.2167 170.429 52.45C169.712 52.6833 169.104 53.0083 168.604 53.425L167.379 51.15C168.096 50.6 168.946 50.1917 169.929 49.925C170.929 49.6417 171.962 49.5 173.029 49.5C174.962 49.5 176.454 49.9667 177.504 50.9C178.571 51.8167 179.104 53.2417 179.104 55.175V63H176.154ZM171.954 63.175C170.954 63.175 170.079 63.0083 169.329 62.675C168.579 62.325 167.996 61.85 167.579 61.25C167.179 60.6333 166.979 59.9417 166.979 59.175C166.979 58.425 167.154 57.75 167.504 57.15C167.871 56.55 168.462 56.075 169.279 55.725C170.096 55.375 171.179 55.2 172.529 55.2H176.404V57.275H172.754C171.687 57.275 170.971 57.45 170.604 57.8C170.237 58.1333 170.054 58.55 170.054 59.05C170.054 59.6167 170.279 60.0667 170.729 60.4C171.179 60.7333 171.804 60.9 172.604 60.9C173.371 60.9 174.054 60.725 174.654 60.375C175.271 60.025 175.712 59.5083 175.979 58.825L176.504 60.7C176.204 61.4833 175.662 62.0917 174.879 62.525C174.112 62.9583 173.137 63.175 171.954 63.175ZM190.371 63.175C189.288 63.175 188.296 62.925 187.396 62.425C186.513 61.925 185.804 61.175 185.271 60.175C184.754 59.1583 184.496 57.875 184.496 56.325C184.496 54.7583 184.746 53.475 185.246 52.475C185.763 51.475 186.463 50.7333 187.346 50.25C188.229 49.75 189.238 49.5 190.371 49.5C191.688 49.5 192.846 49.7833 193.846 50.35C194.863 50.9167 195.663 51.7083 196.246 52.725C196.846 53.7417 197.146 54.9417 197.146 56.325C197.146 57.7083 196.846 58.9167 196.246 59.95C195.663 60.9667 194.863 61.7583 193.846 62.325C192.846 62.8917 191.688 63.175 190.371 63.175ZM182.971 67.85V49.65H185.946V52.8L185.846 56.35L186.096 59.9V67.85H182.971ZM190.021 60.5C190.771 60.5 191.438 60.3333 192.021 60C192.621 59.6667 193.096 59.1833 193.446 58.55C193.796 57.9167 193.971 57.175 193.971 56.325C193.971 55.4583 193.796 54.7167 193.446 54.1C193.096 53.4667 192.621 52.9833 192.021 52.65C191.438 52.3167 190.771 52.15 190.021 52.15C189.271 52.15 188.596 52.3167 187.996 52.65C187.396 52.9833 186.921 53.4667 186.571 54.1C186.221 54.7167 186.046 55.4583 186.046 56.325C186.046 57.175 186.221 57.9167 186.571 58.55C186.921 59.1833 187.396 59.6667 187.996 60C188.596 60.3333 189.271 60.5 190.021 60.5ZM206.331 63.175C204.931 63.175 203.681 62.8833 202.581 62.3C201.498 61.7 200.648 60.8833 200.031 59.85C199.415 58.8167 199.106 57.6417 199.106 56.325C199.106 54.9917 199.415 53.8167 200.031 52.8C200.648 51.7667 201.498 50.9583 202.581 50.375C203.681 49.7917 204.931 49.5 206.331 49.5C207.631 49.5 208.773 49.7667 209.756 50.3C210.756 50.8167 211.515 51.5833 212.031 52.6L209.631 54C209.231 53.3667 208.74 52.9 208.156 52.6C207.59 52.3 206.973 52.15 206.306 52.15C205.54 52.15 204.848 52.3167 204.231 52.65C203.615 52.9833 203.131 53.4667 202.781 54.1C202.431 54.7167 202.256 55.4583 202.256 56.325C202.256 57.1917 202.431 57.9417 202.781 58.575C203.131 59.1917 203.615 59.6667 204.231 60C204.848 60.3333 205.54 60.5 206.306 60.5C206.973 60.5 207.59 60.35 208.156 60.05C208.74 59.75 209.231 59.2833 209.631 58.65L212.031 60.05C211.515 61.05 210.756 61.825 209.756 62.375C208.773 62.9083 207.631 63.175 206.331 63.175ZM224.358 63L219.533 56.6L222.083 55.025L228.033 63H224.358ZM214.783 63V49.65H217.908V63H214.783ZM216.983 57.65V55.05H221.508V57.65H216.983ZM222.383 56.7L219.458 56.35L224.358 49.65H227.708L222.383 56.7ZM235.747 63.175C234.381 63.175 233.164 62.8833 232.097 62.3C231.031 61.7 230.189 60.8833 229.572 59.85C228.956 58.8167 228.647 57.6417 228.647 56.325C228.647 54.9917 228.956 53.8167 229.572 52.8C230.189 51.7667 231.031 50.9583 232.097 50.375C233.164 49.7917 234.381 49.5 235.747 49.5C237.131 49.5 238.356 49.7917 239.422 50.375C240.506 50.9583 241.347 51.7583 241.947 52.775C242.564 53.7917 242.872 54.975 242.872 56.325C242.872 57.6417 242.564 58.8167 241.947 59.85C241.347 60.8833 240.506 61.7 239.422 62.3C238.356 62.8833 237.131 63.175 235.747 63.175ZM235.747 60.5C236.514 60.5 237.197 60.3333 237.797 60C238.397 59.6667 238.864 59.1833 239.197 58.55C239.547 57.9167 239.722 57.175 239.722 56.325C239.722 55.4583 239.547 54.7167 239.197 54.1C238.864 53.4667 238.397 52.9833 237.797 52.65C237.197 52.3167 236.522 52.15 235.772 52.15C235.006 52.15 234.322 52.3167 233.722 52.65C233.139 52.9833 232.672 53.4667 232.322 54.1C231.972 54.7167 231.797 55.4583 231.797 56.325C231.797 57.175 231.972 57.9167 232.322 58.55C232.672 59.1833 233.139 59.6667 233.722 60C234.322 60.3333 234.997 60.5 235.747 60.5ZM252.184 63.175C250.701 63.175 249.401 62.8833 248.284 62.3C247.184 61.7 246.326 60.8833 245.709 59.85C245.109 58.8167 244.809 57.6417 244.809 56.325C244.809 54.9917 245.101 53.8167 245.684 52.8C246.284 51.7667 247.101 50.9583 248.134 50.375C249.184 49.7917 250.376 49.5 251.709 49.5C253.009 49.5 254.168 49.7833 255.184 50.35C256.201 50.9167 257.001 51.7167 257.584 52.75C258.168 53.7833 258.459 55 258.459 56.4C258.459 56.5333 258.451 56.6833 258.434 56.85C258.434 57.0167 258.426 57.175 258.409 57.325H247.284V55.25H256.759L255.534 55.9C255.551 55.1333 255.393 54.4583 255.059 53.875C254.726 53.2917 254.268 52.8333 253.684 52.5C253.118 52.1667 252.459 52 251.709 52C250.943 52 250.268 52.1667 249.684 52.5C249.118 52.8333 248.668 53.3 248.334 53.9C248.018 54.4833 247.859 55.175 247.859 55.975V56.475C247.859 57.275 248.043 57.9833 248.409 58.6C248.776 59.2167 249.293 59.6917 249.959 60.025C250.626 60.3583 251.393 60.525 252.259 60.525C253.009 60.525 253.684 60.4083 254.284 60.175C254.884 59.9417 255.418 59.575 255.884 59.075L257.559 61C256.959 61.7 256.201 62.2417 255.284 62.625C254.384 62.9917 253.351 63.175 252.184 63.175ZM271.562 63V51.55L272.287 52.3H266.862V49.65H279.362V52.3H273.962L274.687 51.55V63H271.562ZM289.728 63V60.3L289.553 59.725V55C289.553 54.0833 289.278 53.375 288.728 52.875C288.178 52.3583 287.345 52.1 286.228 52.1C285.478 52.1 284.737 52.2167 284.003 52.45C283.287 52.6833 282.678 53.0083 282.178 53.425L280.953 51.15C281.67 50.6 282.52 50.1917 283.503 49.925C284.503 49.6417 285.537 49.5 286.603 49.5C288.537 49.5 290.028 49.9667 291.078 50.9C292.145 51.8167 292.678 53.2417 292.678 55.175V63H289.728ZM285.528 63.175C284.528 63.175 283.653 63.0083 282.903 62.675C282.153 62.325 281.57 61.85 281.153 61.25C280.753 60.6333 280.553 59.9417 280.553 59.175C280.553 58.425 280.728 57.75 281.078 57.15C281.445 56.55 282.037 56.075 282.853 55.725C283.67 55.375 284.753 55.2 286.103 55.2H289.978V57.275H286.328C285.262 57.275 284.545 57.45 284.178 57.8C283.812 58.1333 283.628 58.55 283.628 59.05C283.628 59.6167 283.853 60.0667 284.303 60.4C284.753 60.7333 285.378 60.9 286.178 60.9C286.945 60.9 287.628 60.725 288.228 60.375C288.845 60.025 289.287 59.5083 289.553 58.825L290.078 60.7C289.778 61.4833 289.237 62.0917 288.453 62.525C287.687 62.9583 286.712 63.175 285.528 63.175ZM306.12 63L301.295 56.6L303.845 55.025L309.795 63H306.12ZM296.545 63V49.65H299.67V63H296.545ZM298.745 57.65V55.05H303.27V57.65H298.745ZM304.145 56.7L301.22 56.35L306.12 49.65H309.47L304.145 56.7ZM317.635 63.175C316.235 63.175 314.985 62.8833 313.885 62.3C312.802 61.7 311.952 60.8833 311.335 59.85C310.718 58.8167 310.41 57.6417 310.41 56.325C310.41 54.9917 310.718 53.8167 311.335 52.8C311.952 51.7667 312.802 50.9583 313.885 50.375C314.985 49.7917 316.235 49.5 317.635 49.5C318.935 49.5 320.077 49.7667 321.06 50.3C322.06 50.8167 322.818 51.5833 323.335 52.6L320.935 54C320.535 53.3667 320.043 52.9 319.46 52.6C318.893 52.3 318.277 52.15 317.61 52.15C316.843 52.15 316.152 52.3167 315.535 52.65C314.918 52.9833 314.435 53.4667 314.085 54.1C313.735 54.7167 313.56 55.4583 313.56 56.325C313.56 57.1917 313.735 57.9417 314.085 58.575C314.435 59.1917 314.918 59.6667 315.535 60C316.152 60.3333 316.843 60.5 317.61 60.5C318.277 60.5 318.893 60.35 319.46 60.05C320.043 59.75 320.535 59.2833 320.935 58.65L323.335 60.05C322.818 61.05 322.06 61.825 321.06 62.375C320.077 62.9083 318.935 63.175 317.635 63.175ZM326.086 63V49.65H329.211V58.45L336.586 49.65H339.436V63H336.311V54.2L328.961 63H326.086Z" fill="black"/>
</svg>
