<svg width="47" height="47" viewBox="0 0 47 47" fill="none" xmlns="http://www.w3.org/2000/svg">
<path d="M23.5 0C10.528 0 0 10.528 0 23.5C0 36.472 10.528 47 23.5 47C36.472 47 47 36.472 47 23.5C47 10.528 36.472 0 23.5 0ZM34.404 15.98C34.0515 19.693 32.524 28.717 31.7485 32.8765C31.4195 34.639 30.7615 35.2265 30.1505 35.297C28.7875 35.4145 27.7535 34.404 26.4375 33.5345C24.3695 32.1715 23.1945 31.3255 21.197 30.0095C18.8705 28.482 20.3745 27.636 21.714 26.273C22.0665 25.9205 28.0825 20.445 28.2 19.9515C28.2163 19.8768 28.2141 19.7992 28.1937 19.7254C28.1732 19.6517 28.135 19.5841 28.0825 19.5285C27.9415 19.411 27.7535 19.458 27.589 19.4815C27.3775 19.5285 24.0875 21.714 17.672 26.038C16.732 26.6725 15.886 27.0015 15.134 26.978C14.288 26.9545 12.69 26.508 11.4915 26.1085C10.011 25.6385 8.8595 25.38 8.9535 24.5575C9.0005 24.1345 9.588 23.7115 10.6925 23.265C17.5545 20.2805 22.1135 18.3065 24.393 17.3665C30.926 14.6405 32.2655 14.1705 33.1585 14.1705C33.3465 14.1705 33.793 14.2175 34.075 14.4525C34.31 14.6405 34.3805 14.899 34.404 15.087C34.3805 15.228 34.4275 15.651 34.404 15.98Z" fill="#27A7E7"/>
</svg>
