<svg width="47" height="47" viewBox="0 0 47 47" fill="none" xmlns="http://www.w3.org/2000/svg">
<path opacity="0.5" d="M40.1507 6.83861C37.9851 4.66276 35.4059 2.93754 32.5635 1.76347C29.721 0.589408 26.6721 -0.0100184 23.5945 0.000126653C10.699 0.000126653 0.188945 10.4576 0.188945 23.2886C0.188945 27.4011 1.27538 31.396 3.30653 34.921L0 47L12.3995 43.757C15.8241 45.6135 19.6739 46.6005 23.5945 46.6005C36.4899 46.6005 47 36.143 47 23.3121C47 17.0846 44.5673 11.2331 40.1507 6.83861ZM23.5945 42.6525C20.099 42.6525 16.6744 41.7125 13.6749 39.95L12.9663 39.527L5.59749 41.454L7.55779 34.31L7.08543 33.5815C5.14295 30.4961 4.11173 26.9293 4.10955 23.2886C4.10955 12.6196 12.8482 3.92462 23.5709 3.92462C28.7668 3.92462 33.6558 5.94561 37.3166 9.6116C39.1295 11.4067 40.5662 13.5421 41.5433 15.8939C42.5204 18.2457 43.0185 20.7672 43.0085 23.3121C43.0558 33.981 34.3171 42.6525 23.5945 42.6525ZM34.2698 28.1766C33.6794 27.8946 30.798 26.4846 30.2784 26.2731C29.7352 26.0851 29.3573 25.9911 28.9558 26.5551C28.5543 27.1426 27.4442 28.4586 27.1136 28.8346C26.7829 29.2341 26.4286 29.281 25.8382 28.9755C25.2477 28.6936 23.3583 28.0591 21.1382 26.0851C19.3904 24.5341 18.2332 22.6306 17.8789 22.0431C17.5482 21.4556 17.8317 21.1501 18.1387 20.8446C18.3985 20.5861 18.7291 20.1631 19.0126 19.8341C19.296 19.5051 19.4141 19.2466 19.603 18.8706C19.792 18.4711 19.6975 18.1421 19.5558 17.8601C19.4141 17.5781 18.2332 14.7111 17.7608 13.5361C17.2884 12.4081 16.7925 12.5491 16.4382 12.5256H15.3045C14.903 12.5256 14.2889 12.6666 13.7457 13.2541C13.2261 13.8416 11.7146 15.2516 11.7146 18.1186C11.7146 20.9856 13.8166 23.7586 14.1 24.1346C14.3834 24.5341 18.2332 30.409 24.0904 32.9235C25.4839 33.5345 26.5703 33.887 27.4206 34.1455C28.8141 34.592 30.0894 34.5215 31.105 34.3805C32.2387 34.216 34.5769 32.9705 35.0492 31.6075C35.5452 30.2445 35.5452 29.0931 35.3799 28.8346C35.2146 28.5761 34.8603 28.4586 34.2698 28.1766Z" fill="#009411"/>
</svg>
